<svg width="48" height="48" viewBox="0 0 48 48" fill="none" xmlns="http://www.w3.org/2000/svg">
<path d="M24.001 4C12.924 4 4.00098 12.923 4.00098 24C4.00098 35.077 12.924 44 24.001 44C35.077 44 44.001 35.077 44.001 24C44.001 12.923 35.077 4 24.001 4Z" fill="#4CAF50"/>
<path opacity="0.05" d="M21.2239 15.938C26.7779 15.938 32.6239 17.108 37.0089 19.592C37.5929 19.885 38.0309 20.469 38.0309 21.346C37.8859 22.369 37.1539 23.101 36.1319 23.101C35.6939 23.101 35.5469 22.955 35.1089 22.81C31.6009 20.763 26.3399 19.593 21.2239 19.593C18.5929 19.593 15.9619 19.886 13.6239 20.47C13.3309 20.47 13.0389 20.616 12.6009 20.616C12.5259 20.627 12.4519 20.632 12.3799 20.632C11.4749 20.632 10.8469 19.811 10.8469 18.862C10.8469 17.839 11.4319 17.255 12.1619 17.108C14.9389 16.231 17.8619 15.938 21.2239 15.938ZM20.7849 22.369C25.7549 22.369 30.5779 23.539 34.3779 25.876C34.9619 26.167 35.2549 26.753 35.2549 27.337C35.2549 28.215 34.6699 28.945 33.7929 28.945C33.3549 28.945 33.0629 28.801 32.7699 28.654C29.7019 26.754 25.4619 25.583 20.6399 25.583C18.3009 25.583 16.1089 25.876 14.5009 26.316C14.0619 26.46 13.9159 26.46 13.6239 26.46C12.7469 26.46 12.1619 25.73 12.1619 24.999C12.1619 24.122 12.6009 23.683 13.3309 23.392C15.5229 22.808 17.7159 22.369 20.7849 22.369ZM21.2229 28.654C25.3159 28.654 29.1159 29.675 32.3309 31.578C32.7689 31.869 33.0619 32.162 33.0619 32.892C32.9159 33.478 32.3309 33.915 31.7469 33.915C31.4549 33.915 31.1619 33.77 30.8699 33.623C28.0929 32.016 24.7309 31.139 21.0779 31.139C19.0309 31.139 16.9849 31.43 15.0849 31.869C14.7929 31.869 14.3539 32.015 14.2079 32.015C13.4769 32.015 13.0389 31.429 13.0389 30.845C13.0389 30.115 13.4769 29.675 14.0619 29.531C16.3999 28.945 18.7389 28.654 21.2229 28.654ZM21.2239 14.938C17.4349 14.938 14.5579 15.309 11.9069 16.14C10.6529 16.419 9.84692 17.481 9.84692 18.862C9.84692 20.415 10.9589 21.632 12.3799 21.632C12.4749 21.632 12.5719 21.627 12.6709 21.615C12.9899 21.608 13.2449 21.55 13.4349 21.508C13.5029 21.493 13.5649 21.473 13.6279 21.47H13.7509L13.8669 21.44C16.0859 20.886 18.6299 20.593 21.2249 20.593C26.2979 20.593 31.2999 21.745 34.6059 23.674L34.6959 23.727L34.7949 23.76C34.9039 23.796 34.9899 23.833 35.0679 23.865C35.3189 23.97 35.6309 24.101 36.1329 24.101C37.6159 24.101 38.8039 23.026 39.0219 21.486L39.0319 21.416V21.345C39.0319 20.174 38.4679 19.215 37.4829 18.71C33.2379 16.313 27.3139 14.938 21.2239 14.938ZM20.7849 21.369C17.4939 21.369 15.1339 21.877 13.0739 22.426L13.0159 22.441L12.9609 22.463C11.7669 22.939 11.1619 23.792 11.1619 24.999C11.1619 26.356 12.2659 27.46 13.6239 27.46C13.9949 27.46 14.2499 27.451 14.8129 27.266C16.3849 26.837 18.5269 26.583 20.6399 26.583C25.0809 26.583 29.2019 27.62 32.2429 29.504L32.2809 29.528L32.3209 29.548C32.6549 29.716 33.1129 29.945 33.7919 29.945C35.1959 29.945 36.2539 28.824 36.2539 27.337C36.2539 26.341 35.7239 25.451 34.8669 25.003C31.0399 22.659 26.0399 21.369 20.7849 21.369ZM21.2229 27.654C18.6759 27.654 16.2539 27.951 13.8189 28.561C12.7229 28.831 12.0389 29.706 12.0389 30.845C12.0389 32.062 12.9919 33.015 14.2079 33.015C14.3799 33.015 14.5419 32.978 14.7299 32.936C14.8309 32.913 15.0179 32.871 15.0869 32.869L15.1879 32.866L15.3099 32.843C17.3329 32.376 19.2729 32.139 21.0779 32.139C24.4999 32.139 27.7129 32.951 30.3689 34.489L30.3939 34.504L30.4199 34.517C30.7539 34.685 31.2119 34.916 31.7469 34.916C32.7969 34.916 33.7789 34.15 34.0319 33.135L34.0619 33.016V32.893C34.0619 31.691 33.4669 31.133 32.8839 30.746L32.8619 30.732L32.8399 30.719C29.4549 28.713 25.4369 27.654 21.2229 27.654Z" fill="black"/>
<path opacity="0.07" d="M21.2239 15.938C26.7779 15.938 32.6239 17.108 37.0089 19.592C37.5929 19.885 38.0309 20.469 38.0309 21.346C37.8859 22.369 37.1539 23.101 36.1319 23.101C35.6939 23.101 35.5469 22.955 35.1089 22.81C31.6009 20.763 26.3399 19.593 21.2239 19.593C18.5929 19.593 15.9619 19.886 13.6239 20.47C13.3309 20.47 13.0389 20.616 12.6009 20.616C12.5259 20.627 12.4519 20.632 12.3799 20.632C11.4749 20.632 10.8469 19.811 10.8469 18.862C10.8469 17.839 11.4319 17.255 12.1619 17.108C14.9389 16.231 17.8619 15.938 21.2239 15.938ZM20.7849 22.369C25.7549 22.369 30.5779 23.539 34.3779 25.876C34.9619 26.167 35.2549 26.753 35.2549 27.337C35.2549 28.215 34.6699 28.945 33.7929 28.945C33.3549 28.945 33.0629 28.801 32.7699 28.654C29.7019 26.754 25.4619 25.583 20.6399 25.583C18.3009 25.583 16.1089 25.876 14.5009 26.316C14.0619 26.46 13.9159 26.46 13.6239 26.46C12.7469 26.46 12.1619 25.73 12.1619 24.999C12.1619 24.122 12.6009 23.683 13.3309 23.392C15.5229 22.808 17.7159 22.369 20.7849 22.369ZM21.2229 28.654C25.3159 28.654 29.1159 29.675 32.3309 31.578C32.7689 31.869 33.0619 32.162 33.0619 32.892C32.9159 33.478 32.3309 33.915 31.7469 33.915C31.4549 33.915 31.1619 33.77 30.8699 33.623C28.0929 32.016 24.7309 31.139 21.0779 31.139C19.0309 31.139 16.9849 31.43 15.0849 31.869C14.7929 31.869 14.3539 32.015 14.2079 32.015C13.4769 32.015 13.0389 31.429 13.0389 30.845C13.0389 30.115 13.4769 29.675 14.0619 29.531C16.3999 28.945 18.7389 28.654 21.2229 28.654ZM21.2239 15.438C17.4769 15.438 14.6419 15.804 12.0359 16.624C10.9939 16.846 10.3469 17.702 10.3469 18.862C10.3469 20.135 11.2399 21.132 12.3799 21.132C12.4639 21.132 12.5489 21.127 12.6369 21.116C12.9169 21.112 13.1429 21.061 13.3259 21.02C13.4449 20.993 13.5479 20.97 13.6249 20.97H13.6859L13.7459 20.955C16.0039 20.391 18.5899 20.093 21.2249 20.093C26.3829 20.093 31.4789 21.27 34.8579 23.242L34.9029 23.268L34.9529 23.284C35.0759 23.325 35.1739 23.366 35.2619 23.403C35.4929 23.5 35.7319 23.6 36.1329 23.6C37.3799 23.6 38.3419 22.722 38.5269 21.415L38.5319 21.38V21.345C38.5319 20.36 38.0589 19.558 37.2339 19.144C33.0829 16.794 27.2399 15.438 21.2239 15.438ZM20.7849 21.869C17.7309 21.869 15.5449 22.285 13.2019 22.909L13.1729 22.917L13.1449 22.928C12.5079 23.182 11.6609 23.673 11.6609 24.999C11.6609 25.942 12.4109 26.96 13.6229 26.96C13.9629 26.96 14.1639 26.952 14.6559 26.791C16.2929 26.344 18.4829 26.083 20.6389 26.083C25.1719 26.083 29.3859 27.147 32.5059 29.079C32.8509 29.254 33.2309 29.445 33.7919 29.445C34.9109 29.445 35.7539 28.539 35.7539 27.337C35.7539 26.514 35.3119 25.783 34.5999 25.428C30.8849 23.141 25.9649 21.869 20.7849 21.869ZM21.2229 28.154C18.7169 28.154 16.3349 28.446 13.9399 29.046C13.0759 29.259 12.5389 29.948 12.5389 30.845C12.5389 31.666 13.1629 32.515 14.2079 32.515C14.3239 32.515 14.4539 32.486 14.6189 32.448C14.7669 32.415 14.9699 32.369 15.0849 32.369H15.1419L15.1979 32.356C17.2579 31.88 19.2359 31.639 21.0779 31.639C24.5879 31.639 27.8869 32.475 30.6199 34.056C30.9509 34.224 31.3319 34.415 31.7469 34.415C32.5739 34.415 33.3479 33.812 33.5469 33.013L33.5619 32.953V32.892C33.5619 31.88 33.0689 31.468 32.6079 31.162C29.2769 29.189 25.3479 28.154 21.2229 28.154Z" fill="black"/>
<path d="M31.7469 33.915C31.4549 33.915 31.1619 33.77 30.8699 33.623C28.0929 32.016 24.7309 31.139 21.0779 31.139C19.0309 31.139 16.9849 31.43 15.0849 31.869C14.7929 31.869 14.3539 32.015 14.2079 32.015C13.4769 32.015 13.0389 31.429 13.0389 30.845C13.0389 30.115 13.4769 29.675 14.0619 29.531C16.3999 28.945 18.7389 28.654 21.2229 28.654C25.3159 28.654 29.1159 29.675 32.3309 31.578C32.7689 31.869 33.0619 32.162 33.0619 32.892C32.9159 33.478 32.3309 33.915 31.7469 33.915ZM33.7929 28.945C33.3549 28.945 33.0629 28.801 32.7699 28.654C29.7019 26.754 25.4619 25.583 20.6399 25.583C18.3009 25.583 16.1089 25.876 14.5009 26.316C14.0619 26.46 13.9159 26.46 13.6239 26.46C12.7469 26.46 12.1619 25.73 12.1619 24.999C12.1619 24.122 12.6009 23.683 13.3309 23.392C15.5229 22.808 17.7159 22.369 20.7849 22.369C25.7549 22.369 30.5779 23.539 34.3779 25.876C34.9619 26.167 35.2549 26.753 35.2549 27.337C35.2549 28.215 34.6699 28.945 33.7929 28.945ZM36.1319 23.101C35.6939 23.101 35.5469 22.955 35.1089 22.81C31.6009 20.763 26.3399 19.593 21.2239 19.593C18.5929 19.593 15.9619 19.886 13.6239 20.47C13.3309 20.47 13.0389 20.616 12.6009 20.616C11.5779 20.762 10.8469 19.886 10.8469 18.862C10.8469 17.839 11.4319 17.255 12.1619 17.108C14.9389 16.231 17.8619 15.938 21.2239 15.938C26.7779 15.938 32.6239 17.108 37.0089 19.592C37.5929 19.885 38.0309 20.469 38.0309 21.346C37.8859 22.369 37.1539 23.101 36.1319 23.101Z" fill="white"/>
</svg>
